<?xml version="1.0" encoding="UTF-8"?>
<!DOCTYPE svg PUBLIC "-//W3C//DTD SVG 1.1//EN" "http://www.w3.org/Graphics/SVG/1.1/DTD/svg11.dtd">
<svg xmlns="http://www.w3.org/2000/svg" version="1.1" width="850px" height="850px" style="shape-rendering:geometricPrecision; text-rendering:geometricPrecision; image-rendering:optimizeQuality; fill-rule:evenodd; clip-rule:evenodd" xmlns:xlink="http://www.w3.org/1999/xlink">
<g><path style="opacity:0.982" fill="#1384ee" d="M 477.5,233.5 C 501.233,234.724 511.733,247.058 509,270.5C 503.419,286.377 492.252,293.211 475.5,291C 458.338,285.849 450.838,274.349 453,256.5C 456.273,243.473 464.44,235.807 477.5,233.5 Z"/></g>
<g><path style="opacity:0.991" fill="#1384ee" d="M 331.5,265.5 C 352.854,263.366 364.854,272.866 367.5,294C 367.438,300.421 365.605,306.254 362,311.5C 358.333,315.167 354.667,318.833 351,322.5C 347.333,331.168 350.166,336.834 359.5,339.5C 361.197,339.101 362.863,338.601 364.5,338C 377.167,325.333 389.833,312.667 402.5,300C 417.595,289.483 431.761,290.649 445,303.5C 451.895,314.947 452.229,326.614 446,338.5C 412,372.5 378,406.5 344,440.5C 339.587,449.672 342.253,455.672 352,458.5C 353.399,457.773 354.899,457.273 356.5,457C 410.861,402.306 465.527,347.972 520.5,294C 535.365,286.292 548.532,288.459 560,300.5C 567.812,313.615 567.145,326.281 558,338.5C 545,351.5 532,364.5 519,377.5C 516.251,385.999 519.251,391.332 528,393.5C 530.245,392.863 532.412,392.03 534.5,391C 544.833,380.667 555.167,370.333 565.5,360C 580.703,352.203 594.203,354.369 606,366.5C 613.563,378.747 613.23,390.747 605,402.5C 581.667,425.833 558.333,449.167 535,472.5C 531.789,477.909 532.622,482.743 537.5,487C 541.5,489 545.5,489 549.5,487C 556.581,477.238 566.081,471.738 578,470.5C 598.082,473.581 607.416,485.248 606,505.5C 605.303,509.928 603.637,513.928 601,517.5C 584.5,534 568,550.5 551.5,567C 538.974,574.55 526.641,574.217 514.5,566C 503.262,553.994 501.762,540.827 510,526.5C 513.667,522.833 517.333,519.167 521,515.5C 524.562,504.064 520.396,498.898 508.5,500C 471.194,536.305 434.194,572.972 397.5,610C 387.62,616.995 376.953,618.328 365.5,614C 353.534,606.9 348.367,596.4 350,582.5C 350.697,578.072 352.363,574.072 355,570.5C 405,520.5 455,470.5 505,420.5C 508.741,414.625 507.908,409.458 502.5,405C 498.833,403 495.167,403 491.5,405C 436.806,460.028 381.806,514.694 326.5,569C 310.655,576.827 297.155,573.994 286,560.5C 280,549.833 280,539.167 286,528.5C 300.304,513.195 314.971,498.195 330,483.5C 332.514,477.046 330.681,472.212 324.5,469C 320.548,468.088 316.881,468.755 313.5,471C 303.5,481 293.5,491 283.5,501C 268.671,508.625 255.505,506.458 244,494.5C 236.45,481.974 236.783,469.641 245,457.5C 275.667,426.833 306.333,396.167 337,365.5C 340.29,354.887 336.457,349.72 325.5,350C 312.562,360.935 300.229,372.602 288.5,385C 271.038,394.84 256.538,391.674 245,375.5C 240.092,364.281 241.092,353.615 248,343.5C 272.167,319.333 296.333,295.167 320.5,271C 323.99,268.588 327.657,266.755 331.5,265.5 Z"/></g>
</svg>
